<svg width="122" height="122" viewBox="0 0 122 122" fill="none" xmlns="http://www.w3.org/2000/svg">
<g id="octicon:people-16">
<path id="Vector" d="M15.25 41.9374C15.2494 37.5139 16.3484 33.1597 18.4481 29.2663C20.5478 25.3729 23.5823 22.0625 27.2788 19.6328C30.9752 17.2031 35.2177 15.7304 39.6245 15.347C44.0313 14.9636 48.4643 15.6817 52.5248 17.4365C56.5853 19.1914 60.1459 21.928 62.8864 25.4003C65.6269 28.8726 67.4613 32.9717 68.2246 37.3288C68.9879 41.6859 68.6562 46.1644 67.2594 50.3616C65.8625 54.5587 63.4443 58.3428 60.2222 61.3735C66.2971 64.3228 71.5716 68.693 75.5987 74.1138C79.6258 79.5346 82.2869 85.8463 83.3565 92.514C83.4741 93.256 83.4445 94.0139 83.2692 94.7444C83.094 95.4749 82.7766 96.1638 82.3351 96.7717C81.8936 97.3795 81.3368 97.8945 80.6963 98.2871C80.0558 98.6797 79.3443 98.9424 78.6023 99.0601C77.8603 99.1777 77.1024 99.1481 76.3719 98.9728C75.6413 98.7976 74.9525 98.4802 74.3446 98.0387C73.7368 97.5972 73.2218 97.0404 72.8292 96.3999C72.4365 95.7594 72.1739 95.0479 72.0562 94.3059C70.9125 87.1407 67.2519 80.618 61.7317 75.909C56.2115 71.2 49.1933 68.6133 41.9375 68.6133C34.6816 68.6133 27.6634 71.2 22.1432 75.909C16.623 80.618 12.9624 87.1407 11.8187 94.3059C11.7006 95.0479 11.4374 95.7593 11.0443 96.3996C10.6512 97.0399 10.1358 97.5965 9.52761 98.0376C8.91939 98.4787 8.23025 98.7957 7.49953 98.9705C6.76881 99.1453 6.01082 99.1744 5.26883 99.0562C4.52685 98.9381 3.8154 98.6749 3.17511 98.2818C2.53482 97.8887 1.97823 97.3734 1.53712 96.7651C1.09601 96.1569 0.779011 95.4678 0.604228 94.7371C0.429445 94.0063 0.4003 93.2484 0.518457 92.5064C1.58422 85.8392 4.24399 79.5279 8.27167 74.109C12.2994 68.6901 17.5759 64.3237 23.6527 61.3811C20.9992 58.8852 18.8848 55.8725 17.4397 52.5286C15.9946 49.1846 15.2494 45.5802 15.25 41.9374ZM83.875 30.4999C88.3052 30.503 92.6392 31.792 96.3511 34.2106C100.063 36.6291 102.993 40.0731 104.785 44.1246C106.578 48.176 107.155 52.6607 106.448 57.0341C105.741 61.4076 103.78 65.4818 100.802 68.7621C105.446 71.0626 109.572 74.2857 112.928 78.2344C116.285 82.1832 118.801 86.7748 120.322 91.7286C120.625 92.6899 120.667 93.714 120.446 94.6971C120.224 95.6801 119.747 96.587 119.061 97.3258C118.376 98.0645 117.507 98.6088 116.544 98.9034C115.58 99.1979 114.556 99.2322 113.574 99.0029C112.593 98.776 111.69 98.2941 110.955 97.6059C110.219 96.9177 109.679 96.0476 109.388 95.0836C108.02 90.6638 105.529 86.6743 102.158 83.5044C98.7879 80.3345 94.6533 78.0924 90.158 76.9971C88.9093 76.6957 87.7985 75.9826 87.0045 74.9729C86.2105 73.9631 85.7796 72.7154 85.7812 71.4309V68.7469C85.7805 67.6822 86.0771 66.6384 86.6375 65.7332C87.1979 64.8279 87.9999 64.097 88.9532 63.6229C91.2648 62.4772 93.1212 60.5837 94.2209 58.2499C95.3205 55.9161 95.5988 53.279 95.0106 50.767C94.4223 48.2551 93.0021 46.0157 90.9805 44.4128C88.959 42.8099 86.4549 41.9375 83.875 41.9374C82.3583 41.9374 80.9037 41.3349 79.8312 40.2624C78.7587 39.1899 78.1562 37.7353 78.1562 36.2186C78.1562 34.7019 78.7587 33.2473 79.8312 32.1749C80.9037 31.1024 82.3583 30.4999 83.875 30.4999ZM41.9375 26.6874C39.9066 26.6414 37.8871 27.0017 35.9974 27.747C34.1077 28.4923 32.386 29.6077 30.9333 31.0275C29.4806 32.4474 28.3262 34.1432 27.5378 36.0154C26.7495 37.8875 26.3432 39.8983 26.3427 41.9297C26.3422 43.961 26.7475 45.972 27.5349 47.8445C28.3223 49.7171 29.4758 51.4135 30.9278 52.8341C32.3798 54.2547 34.101 55.3709 35.9903 56.1171C37.8796 56.8634 39.899 57.2247 41.9298 57.1797C45.9144 57.0916 49.7061 55.4472 52.4933 52.5984C55.2805 49.7495 56.8417 45.9228 56.8427 41.9373C56.8437 37.9518 55.2844 34.1243 52.4986 31.274C49.7128 28.4238 45.9219 26.7775 41.9375 26.6874Z" fill="url(#paint0_linear_173_12514)"/>
</g>
<defs>
<linearGradient id="paint0_linear_173_12514" x1="21.5" y1="28.5" x2="110.5" y2="96" gradientUnits="userSpaceOnUse">
<stop stop-color="#FE6F04"/>
<stop offset="0.465" stop-color="#DAB000"/>
<stop offset="1" stop-color="#97B600"/>
</linearGradient>
</defs>
</svg>
