<svg width="122" height="122" viewBox="0 0 122 122" fill="none" xmlns="http://www.w3.org/2000/svg">
<g id="uim:process">
<path id="Vector" d="M43.8438 43.2082H20.9688C19.6206 43.2082 18.3277 42.6726 17.3744 41.7193C16.4211 40.766 15.8855 39.473 15.8855 38.1248V15.2498C15.8855 13.9017 16.4211 12.6087 17.3744 11.6554C18.3277 10.7021 19.6206 10.1665 20.9688 10.1665C22.317 10.1665 23.61 10.7021 24.5633 11.6554C25.5166 12.6087 26.0522 13.9017 26.0522 15.2498V33.0415H43.8438C45.192 33.0415 46.485 33.5771 47.4383 34.5304C48.3916 35.4837 48.9272 36.7767 48.9272 38.1248C48.9272 39.473 48.3916 40.766 47.4383 41.7193C46.485 42.6726 45.192 43.2082 43.8438 43.2082Z" fill="#991CD2"/>
<path id="Vector_2" d="M106.75 66.0836C105.402 66.0836 104.109 65.548 103.156 64.5947C102.202 63.6414 101.667 62.3484 101.667 61.0002C101.671 52.0512 98.7205 43.3511 93.2745 36.25C87.8285 29.1489 80.191 24.0439 71.5471 21.727C62.9031 19.4102 53.7362 20.0112 45.4688 23.4367C37.2013 26.8622 30.2956 32.9206 25.8233 40.672C25.1479 41.8388 24.0365 42.6896 22.7338 43.0371C21.4311 43.3845 20.0438 43.2003 18.8769 42.5249C17.7101 41.8494 16.8593 40.7381 16.5118 39.4354C16.1644 38.1327 16.3486 36.7453 17.024 35.5785C22.617 25.8909 31.2507 18.3198 41.5858 14.0398C51.9208 9.75987 63.3794 9.01029 74.184 11.9074C84.9885 14.8045 94.535 21.1863 101.342 30.0627C108.15 38.9391 111.837 49.814 111.833 61.0002C111.833 62.3484 111.298 63.6414 110.344 64.5947C109.391 65.548 108.098 66.0836 106.75 66.0836ZM101.031 111.834C99.683 111.834 98.3901 111.298 97.4367 110.345C96.4834 109.391 95.9479 108.098 95.9479 106.75V88.9586H78.1562C76.808 88.9586 75.5151 88.423 74.5618 87.4697C73.6084 86.5164 73.0729 85.2234 73.0729 83.8752C73.0729 82.527 73.6084 81.2341 74.5618 80.2808C75.5151 79.3275 76.808 78.7919 78.1562 78.7919H101.031C102.379 78.7919 103.672 79.3275 104.626 80.2808C105.579 81.2341 106.115 82.527 106.115 83.8752V106.75C106.115 108.098 105.579 109.391 104.626 110.345C103.672 111.298 102.379 111.834 101.031 111.834Z" fill="url(#paint0_linear_173_12510)"/>
<path id="Vector_3" d="M61.0001 111.833C47.5224 111.82 34.6005 106.46 25.0703 96.9296C15.5402 87.3994 10.1802 74.4775 10.1667 60.9998C10.1667 59.6517 10.7023 58.3587 11.6556 57.4054C12.6089 56.4521 13.9019 55.9165 15.2501 55.9165C16.5983 55.9165 17.8912 56.4521 18.8445 57.4054C19.7979 58.3587 20.3334 59.6517 20.3334 60.9998C20.3295 69.9489 23.2795 78.6489 28.7255 85.75C34.1715 92.8512 41.8091 97.9562 50.453 100.273C59.0969 102.59 68.2638 101.989 76.5313 98.5634C84.7987 95.1379 91.7044 89.0794 96.1767 81.3281C96.5112 80.7503 96.9562 80.2441 97.4862 79.8383C98.0163 79.4325 98.6212 79.1351 99.2662 78.963C99.9112 78.791 100.584 78.7476 101.246 78.8355C101.907 78.9234 102.545 79.1408 103.123 79.4752C103.701 79.8097 104.207 80.2546 104.613 80.7847C105.019 81.3148 105.316 81.9196 105.488 82.5647C105.66 83.2097 105.704 83.8823 105.616 84.5441C105.528 85.2058 105.31 85.8438 104.976 86.4216C100.506 94.131 94.0934 100.534 86.3775 104.993C78.6615 109.452 69.9116 111.81 61.0001 111.833Z" fill="url(#paint1_linear_173_12510)"/>
</g>
<defs>
<linearGradient id="paint0_linear_173_12510" x1="25.4998" y1="31.5" x2="97.4998" y2="86" gradientUnits="userSpaceOnUse">
<stop stop-color="#991CD2"/>
<stop offset="0.525" stop-color="#DD0808"/>
<stop offset="1" stop-color="#FE6F04"/>
</linearGradient>
<linearGradient id="paint1_linear_173_12510" x1="12.5002" y1="62" x2="88.0002" y2="104" gradientUnits="userSpaceOnUse">
<stop stop-color="#991CD2"/>
<stop offset="0.48" stop-color="#DD0808"/>
<stop offset="1" stop-color="#FE6F04"/>
</linearGradient>
</defs>
</svg>
