<svg width="122" height="122" viewBox="0 0 122 122" fill="none" xmlns="http://www.w3.org/2000/svg">
<g id="purpose">
<path id="Vector" d="M106.746 15.2563L120.368 17.9795C121.1 18.1258 121.701 18.6623 121.912 19.3858C122.019 19.7372 122.029 20.111 121.94 20.4674C121.851 20.8238 121.667 21.1495 121.408 21.4099L110.249 32.579C108.912 33.9089 107.104 34.6568 105.218 34.66H95.9609L72.7159 57.9169C73.1594 59.5916 73.241 61.3416 72.9552 63.0504C72.6694 64.7591 72.0228 66.3873 71.0585 67.8265C70.0942 69.2657 68.8343 70.4829 67.3628 71.3969C65.8913 72.3109 64.242 72.9008 62.5246 73.1273C60.8073 73.3538 59.0615 73.2117 57.4034 72.7104C55.7453 72.2092 54.213 71.3602 52.9087 70.2202C51.6043 69.0802 50.5578 67.6753 49.8389 66.0991C49.12 64.5229 48.7452 62.8115 48.7395 61.079C48.7391 59.208 49.1692 57.3619 49.9966 55.6837C50.824 54.0056 52.0264 52.5404 53.5108 51.4016C54.9952 50.2628 56.7217 49.4809 58.5566 49.1165C60.3916 48.7521 62.2858 48.815 64.0925 49.3002L87.3456 26.0352V16.7927C87.3456 14.9067 88.0933 13.094 89.4263 11.7609L100.594 0.591712C100.854 0.332634 101.18 0.148957 101.536 0.0602124C101.892 -0.0285322 102.266 -0.0190266 102.617 0.0877184C103.341 0.29907 103.877 0.90061 104.023 1.63221L106.746 15.2563Z" fill="url(#paint0_linear_173_12517)"/>
<path id="Vector_2" d="M12.1652 61.0792C12.1735 68.0535 13.6772 74.9449 16.5749 81.2885C19.4726 87.6322 23.6968 93.2805 28.9627 97.8524C34.2285 102.424 40.4135 105.814 47.1003 107.792C53.7872 109.77 60.8204 110.29 67.7255 109.319C74.6307 108.347 81.2471 105.905 87.1286 102.158C93.0101 98.4117 98.0197 93.447 101.82 87.5992C105.62 81.7514 108.121 75.1565 109.156 68.2594C110.191 61.3623 109.735 54.3235 107.819 47.6177C107.55 46.8343 107.443 46.0043 107.505 45.1782C107.567 44.3522 107.796 43.5474 108.179 42.8128C108.562 42.0782 109.09 41.4293 109.732 40.9055C110.373 40.3816 111.115 39.9939 111.911 39.7658C112.707 39.5377 113.542 39.4741 114.363 39.5788C115.185 39.6835 115.976 39.9543 116.69 40.3748C117.404 40.7953 118.024 41.3566 118.514 42.0246C119.004 42.6926 119.352 43.4534 119.539 44.2605C123.249 57.2466 122.545 71.0974 117.535 83.6397C112.526 96.182 103.495 106.706 91.8596 113.561C80.2244 120.416 66.6432 123.214 53.2465 121.516C39.8498 119.818 27.3958 113.72 17.8382 104.179C8.29107 94.622 2.18751 82.1647 0.485826 68.7628C-1.21586 55.3608 1.58069 41.7731 8.4364 30.133C15.2921 18.4928 25.8188 9.45941 38.3636 4.45101C50.9085 -0.557403 64.7612 -1.25718 77.7468 2.46153C79.293 2.91359 80.5974 3.95943 81.375 5.37048C82.1525 6.78154 82.3401 8.44307 81.8965 9.99197C81.453 11.5409 80.4144 12.8512 79.0079 13.6366C77.6013 14.422 75.9411 14.6186 74.3901 14.1834C67.1286 12.098 59.482 11.7284 52.0534 13.1039C44.6247 14.4794 37.6172 17.5624 31.5836 22.1097C25.5499 26.657 20.6551 32.5442 17.2852 39.3069C13.9153 46.0697 12.1626 53.5231 12.1652 61.0792Z" fill="url(#paint1_linear_173_12517)"/>
<path id="Vector_3" d="M36.5478 61.079C36.5483 65.5222 37.7617 69.881 40.057 73.6851C42.3524 77.4893 45.6426 80.5944 49.5729 82.6657C53.5031 84.7369 57.9242 85.6957 62.3592 85.4385C66.7942 85.1813 71.0749 83.7179 74.7394 81.2062C78.4033 78.6882 81.3092 75.2163 83.1428 71.1659C84.9764 67.1155 85.668 62.6409 85.1427 58.2258C85.0007 57.1544 85.1467 56.0645 85.5658 55.0683C85.9848 54.0721 86.6618 53.2057 87.527 52.5582C88.3921 51.9106 89.4142 51.5054 90.488 51.3843C91.5618 51.2632 92.6484 51.4305 93.6361 51.869C94.6235 52.3018 95.4785 52.9888 96.1139 53.8599C96.7493 54.731 97.1423 55.755 97.2529 56.8276C98.136 64.3721 96.649 72.0044 92.9982 78.6652C89.3474 85.326 83.714 90.6849 76.8798 93.9981C70.0456 97.3114 62.3496 98.4146 54.8601 97.1546C47.3705 95.8946 40.4589 92.334 35.0846 86.9669C29.7102 81.5998 26.1396 74.6925 24.8685 67.2036C23.5973 59.7148 24.6887 52.0159 27.991 45.1756C31.2933 38.3353 36.6428 32.6928 43.2969 29.0313C49.9511 25.3698 57.5799 23.8709 65.1245 24.7427C65.9323 24.8177 66.7171 25.0532 67.4327 25.4354C68.1484 25.8177 68.7806 26.339 69.2922 26.9687C69.8038 27.5985 70.1846 28.3241 70.4122 29.1029C70.6398 29.8818 70.7097 30.6983 70.6177 31.5045C70.5257 32.3107 70.2738 33.0904 69.8766 33.798C69.4794 34.5056 68.945 35.1267 68.3047 35.625C67.6644 36.1233 66.9311 36.4888 66.1477 36.7C65.3644 36.9111 64.5467 36.9638 63.7428 36.8548C60.3264 36.4581 56.8647 36.7887 53.5852 37.825C50.3056 38.8613 47.2824 40.5798 44.714 42.8676C42.1456 45.1554 40.0902 47.9608 38.6828 51.0995C37.2754 54.2382 36.5478 57.6391 36.5478 61.079Z" fill="url(#paint2_linear_173_12517)"/>
</g>
<defs>
<linearGradient id="paint0_linear_173_12517" x1="58.4107" y1="36.3773" x2="114.863" y2="36.3773" gradientUnits="userSpaceOnUse">
<stop stop-color="#2606B3"/>
<stop offset="0.5" stop-color="#5311CD"/>
<stop offset="1" stop-color="#991CD2"/>
</linearGradient>
<linearGradient id="paint1_linear_173_12517" x1="7.50297" y1="50.9969" x2="112.85" y2="82.7469" gradientUnits="userSpaceOnUse">
<stop stop-color="#2606B3"/>
<stop offset="0.505" stop-color="#5311CD"/>
<stop offset="1" stop-color="#991CD2"/>
</linearGradient>
<linearGradient id="paint2_linear_173_12517" x1="26.1521" y1="57.0462" x2="95.2053" y2="61.5818" gradientUnits="userSpaceOnUse">
<stop stop-color="#2606B3"/>
<stop offset="0.48" stop-color="#5311CD"/>
<stop offset="1" stop-color="#991CD2"/>
</linearGradient>
</defs>
</svg>
